<mxfile host="app.diagrams.net" agent="Mozilla/5.0 (X11; Ubuntu; Linux x86_64; rv:132.0) Gecko/20100101 Firefox/132.0" version="24.8.3">
  <diagram name="Page-1" id="TbZtthQ5-eUh3UXo095x">
    <mxGraphModel dx="2317" dy="723" grid="1" gridSize="10" guides="1" tooltips="1" connect="1" arrows="1" fold="1" page="1" pageScale="1" pageWidth="850" pageHeight="1100" math="0" shadow="0">
      <root>
        <mxCell id="0" />
        <mxCell id="1" parent="0" />
        <mxCell id="Vjc0g-X-Gko_kS8MleXu-80" value="4153" style="rounded=0;whiteSpace=wrap;html=1;" vertex="1" parent="1">
          <mxGeometry x="120" y="570" width="80" height="40" as="geometry" />
        </mxCell>
        <mxCell id="Vjc0g-X-Gko_kS8MleXu-81" value="13131" style="rounded=0;whiteSpace=wrap;html=1;" vertex="1" parent="1">
          <mxGeometry x="145" y="720" width="80" height="40" as="geometry" />
        </mxCell>
        <mxCell id="Vjc0g-X-Gko_kS8MleXu-82" value="4155" style="rounded=0;whiteSpace=wrap;html=1;" vertex="1" parent="1">
          <mxGeometry x="130" y="665" width="80" height="40" as="geometry" />
        </mxCell>
        <mxCell id="Vjc0g-X-Gko_kS8MleXu-83" value="" style="group" vertex="1" connectable="0" parent="1">
          <mxGeometry x="340" y="590" width="320" height="230" as="geometry" />
        </mxCell>
        <mxCell id="Vjc0g-X-Gko_kS8MleXu-84" value="" style="rounded=0;whiteSpace=wrap;html=1;" vertex="1" parent="Vjc0g-X-Gko_kS8MleXu-83">
          <mxGeometry width="320" height="230" as="geometry" />
        </mxCell>
        <mxCell id="Vjc0g-X-Gko_kS8MleXu-85" style="edgeStyle=orthogonalEdgeStyle;rounded=0;orthogonalLoop=1;jettySize=auto;html=1;exitX=0;exitY=0.75;exitDx=0;exitDy=0;entryX=1;entryY=0.5;entryDx=0;entryDy=0;" edge="1" parent="Vjc0g-X-Gko_kS8MleXu-83" source="Vjc0g-X-Gko_kS8MleXu-87" target="Vjc0g-X-Gko_kS8MleXu-94">
          <mxGeometry relative="1" as="geometry" />
        </mxCell>
        <mxCell id="Vjc0g-X-Gko_kS8MleXu-86" style="edgeStyle=orthogonalEdgeStyle;rounded=0;orthogonalLoop=1;jettySize=auto;html=1;exitX=0;exitY=0.5;exitDx=0;exitDy=0;entryX=1;entryY=0.5;entryDx=0;entryDy=0;" edge="1" parent="Vjc0g-X-Gko_kS8MleXu-83" source="Vjc0g-X-Gko_kS8MleXu-87" target="Vjc0g-X-Gko_kS8MleXu-93">
          <mxGeometry relative="1" as="geometry" />
        </mxCell>
        <mxCell id="Vjc0g-X-Gko_kS8MleXu-87" value="kannel gateway" style="rounded=0;whiteSpace=wrap;html=1;" vertex="1" parent="Vjc0g-X-Gko_kS8MleXu-83">
          <mxGeometry x="170" y="60" width="120" height="60" as="geometry" />
        </mxCell>
        <mxCell id="Vjc0g-X-Gko_kS8MleXu-88" style="edgeStyle=orthogonalEdgeStyle;rounded=0;orthogonalLoop=1;jettySize=auto;html=1;entryX=1;entryY=0.5;entryDx=0;entryDy=0;" edge="1" parent="Vjc0g-X-Gko_kS8MleXu-83" source="Vjc0g-X-Gko_kS8MleXu-89" target="Vjc0g-X-Gko_kS8MleXu-92">
          <mxGeometry relative="1" as="geometry" />
        </mxCell>
        <mxCell id="Vjc0g-X-Gko_kS8MleXu-89" value="kannel worker" style="rounded=0;whiteSpace=wrap;html=1;" vertex="1" parent="Vjc0g-X-Gko_kS8MleXu-83">
          <mxGeometry x="170" y="130" width="120" height="60" as="geometry" />
        </mxCell>
        <mxCell id="Vjc0g-X-Gko_kS8MleXu-90" value="&lt;font style=&quot;font-size: 18px;&quot;&gt;196.189.126.215&lt;/font&gt;" style="text;strokeColor=none;fillColor=none;html=1;fontSize=24;fontStyle=1;verticalAlign=middle;align=center;" vertex="1" parent="Vjc0g-X-Gko_kS8MleXu-83">
          <mxGeometry x="130" y="10" width="100" height="30" as="geometry" />
        </mxCell>
        <mxCell id="Vjc0g-X-Gko_kS8MleXu-91" value="" style="group" vertex="1" connectable="0" parent="Vjc0g-X-Gko_kS8MleXu-83">
          <mxGeometry x="20" y="73" width="70" height="110" as="geometry" />
        </mxCell>
        <mxCell id="Vjc0g-X-Gko_kS8MleXu-92" value="4153" style="rounded=0;whiteSpace=wrap;html=1;" vertex="1" parent="Vjc0g-X-Gko_kS8MleXu-91">
          <mxGeometry width="70" height="30" as="geometry" />
        </mxCell>
        <mxCell id="Vjc0g-X-Gko_kS8MleXu-93" value="13131" style="rounded=0;whiteSpace=wrap;html=1;" vertex="1" parent="Vjc0g-X-Gko_kS8MleXu-91">
          <mxGeometry y="40" width="70" height="30" as="geometry" />
        </mxCell>
        <mxCell id="Vjc0g-X-Gko_kS8MleXu-94" value="13000" style="rounded=0;whiteSpace=wrap;html=1;" vertex="1" parent="Vjc0g-X-Gko_kS8MleXu-91">
          <mxGeometry y="80" width="70" height="30" as="geometry" />
        </mxCell>
        <mxCell id="Vjc0g-X-Gko_kS8MleXu-95" value="13000" style="rounded=0;whiteSpace=wrap;html=1;" vertex="1" parent="1">
          <mxGeometry x="155" y="910" width="80" height="40" as="geometry" />
        </mxCell>
        <mxCell id="Vjc0g-X-Gko_kS8MleXu-96" value="13013" style="rounded=0;whiteSpace=wrap;html=1;" vertex="1" parent="1">
          <mxGeometry x="130" y="830" width="80" height="40" as="geometry" />
        </mxCell>
        <mxCell id="Vjc0g-X-Gko_kS8MleXu-97" style="edgeStyle=orthogonalEdgeStyle;rounded=0;orthogonalLoop=1;jettySize=auto;html=1;entryX=1;entryY=0.5;entryDx=0;entryDy=0;" edge="1" parent="1" source="Vjc0g-X-Gko_kS8MleXu-92" target="Vjc0g-X-Gko_kS8MleXu-80">
          <mxGeometry relative="1" as="geometry">
            <mxPoint x="235" y="580" as="targetPoint" />
          </mxGeometry>
        </mxCell>
        <mxCell id="Vjc0g-X-Gko_kS8MleXu-98" style="edgeStyle=orthogonalEdgeStyle;rounded=0;orthogonalLoop=1;jettySize=auto;html=1;exitX=0;exitY=0.75;exitDx=0;exitDy=0;entryX=1;entryY=0.5;entryDx=0;entryDy=0;" edge="1" parent="1" source="Vjc0g-X-Gko_kS8MleXu-92" target="Vjc0g-X-Gko_kS8MleXu-82">
          <mxGeometry relative="1" as="geometry" />
        </mxCell>
        <mxCell id="Vjc0g-X-Gko_kS8MleXu-99" style="edgeStyle=orthogonalEdgeStyle;rounded=0;orthogonalLoop=1;jettySize=auto;html=1;entryX=1;entryY=0.25;entryDx=0;entryDy=0;" edge="1" parent="1" source="Vjc0g-X-Gko_kS8MleXu-94" target="Vjc0g-X-Gko_kS8MleXu-95">
          <mxGeometry relative="1" as="geometry" />
        </mxCell>
        <mxCell id="Vjc0g-X-Gko_kS8MleXu-100" style="edgeStyle=orthogonalEdgeStyle;rounded=0;orthogonalLoop=1;jettySize=auto;html=1;exitX=0;exitY=0.25;exitDx=0;exitDy=0;entryX=1;entryY=0.5;entryDx=0;entryDy=0;" edge="1" parent="1" source="Vjc0g-X-Gko_kS8MleXu-94" target="Vjc0g-X-Gko_kS8MleXu-96">
          <mxGeometry relative="1" as="geometry" />
        </mxCell>
        <mxCell id="Vjc0g-X-Gko_kS8MleXu-101" style="edgeStyle=orthogonalEdgeStyle;rounded=0;orthogonalLoop=1;jettySize=auto;html=1;exitX=0;exitY=0.5;exitDx=0;exitDy=0;" edge="1" parent="1" source="Vjc0g-X-Gko_kS8MleXu-93" target="Vjc0g-X-Gko_kS8MleXu-81">
          <mxGeometry relative="1" as="geometry" />
        </mxCell>
        <mxCell id="Vjc0g-X-Gko_kS8MleXu-102" value="5019" style="rounded=0;whiteSpace=wrap;html=1;" vertex="1" parent="1">
          <mxGeometry x="460" y="910" width="80" height="40" as="geometry" />
        </mxCell>
        <mxCell id="Vjc0g-X-Gko_kS8MleXu-103" style="edgeStyle=orthogonalEdgeStyle;rounded=0;orthogonalLoop=1;jettySize=auto;html=1;exitX=0.5;exitY=1;exitDx=0;exitDy=0;entryX=0.5;entryY=0;entryDx=0;entryDy=0;" edge="1" parent="1" source="Vjc0g-X-Gko_kS8MleXu-84" target="Vjc0g-X-Gko_kS8MleXu-102">
          <mxGeometry relative="1" as="geometry" />
        </mxCell>
        <mxCell id="Vjc0g-X-Gko_kS8MleXu-118" style="edgeStyle=orthogonalEdgeStyle;rounded=0;orthogonalLoop=1;jettySize=auto;html=1;exitX=0.5;exitY=1;exitDx=0;exitDy=0;entryX=0.5;entryY=0;entryDx=0;entryDy=0;" edge="1" parent="1" source="Vjc0g-X-Gko_kS8MleXu-104" target="Vjc0g-X-Gko_kS8MleXu-117">
          <mxGeometry relative="1" as="geometry" />
        </mxCell>
        <mxCell id="Vjc0g-X-Gko_kS8MleXu-107" value="" style="group" vertex="1" connectable="0" parent="1">
          <mxGeometry x="550" y="1050" width="300" height="160" as="geometry" />
        </mxCell>
        <mxCell id="Vjc0g-X-Gko_kS8MleXu-108" value="" style="rounded=0;whiteSpace=wrap;html=1;" vertex="1" parent="Vjc0g-X-Gko_kS8MleXu-107">
          <mxGeometry width="300" height="160" as="geometry" />
        </mxCell>
        <mxCell id="Vjc0g-X-Gko_kS8MleXu-109" value="10.200.200.226" style="text;strokeColor=none;fillColor=none;html=1;fontSize=24;fontStyle=1;verticalAlign=middle;align=center;" vertex="1" parent="Vjc0g-X-Gko_kS8MleXu-107">
          <mxGeometry x="90" y="10" width="100" height="30" as="geometry" />
        </mxCell>
        <mxCell id="Vjc0g-X-Gko_kS8MleXu-110" value="tele-sms-server" style="rounded=0;whiteSpace=wrap;html=1;" vertex="1" parent="Vjc0g-X-Gko_kS8MleXu-107">
          <mxGeometry x="100" y="50" width="120" height="60" as="geometry" />
        </mxCell>
        <mxCell id="Vjc0g-X-Gko_kS8MleXu-111" style="edgeStyle=orthogonalEdgeStyle;rounded=0;orthogonalLoop=1;jettySize=auto;html=1;exitX=0.5;exitY=1;exitDx=0;exitDy=0;entryX=0.5;entryY=0;entryDx=0;entryDy=0;" edge="1" parent="1" source="Vjc0g-X-Gko_kS8MleXu-102" target="Vjc0g-X-Gko_kS8MleXu-108">
          <mxGeometry relative="1" as="geometry" />
        </mxCell>
        <mxCell id="Vjc0g-X-Gko_kS8MleXu-112" value="VPN" style="edgeLabel;html=1;align=center;verticalAlign=middle;resizable=0;points=[];" vertex="1" connectable="0" parent="Vjc0g-X-Gko_kS8MleXu-111">
          <mxGeometry x="-0.1908" y="4" relative="1" as="geometry">
            <mxPoint as="offset" />
          </mxGeometry>
        </mxCell>
        <mxCell id="Vjc0g-X-Gko_kS8MleXu-115" value="" style="group" vertex="1" connectable="0" parent="1">
          <mxGeometry x="-770" y="1190" width="437.14" height="200" as="geometry" />
        </mxCell>
        <mxCell id="Vjc0g-X-Gko_kS8MleXu-122" value="" style="group" vertex="1" connectable="0" parent="Vjc0g-X-Gko_kS8MleXu-115">
          <mxGeometry x="10" width="280" height="200" as="geometry" />
        </mxCell>
        <mxCell id="Vjc0g-X-Gko_kS8MleXu-114" value="" style="rounded=0;whiteSpace=wrap;html=1;" vertex="1" parent="Vjc0g-X-Gko_kS8MleXu-122">
          <mxGeometry width="280" height="200" as="geometry" />
        </mxCell>
        <mxCell id="Vjc0g-X-Gko_kS8MleXu-113" value="" style="image;sketch=0;aspect=fixed;html=1;points=[];align=center;fontSize=12;image=img/lib/mscae/Cache_Redis_Product.svg;" vertex="1" parent="Vjc0g-X-Gko_kS8MleXu-122">
          <mxGeometry x="86.43" y="60" width="107.14" height="90" as="geometry" />
        </mxCell>
        <mxCell id="Vjc0g-X-Gko_kS8MleXu-116" value="&lt;font style=&quot;font-size: 18px;&quot;&gt;134.209.249.211&lt;/font&gt;" style="text;strokeColor=none;fillColor=none;html=1;fontSize=24;fontStyle=1;verticalAlign=middle;align=center;" vertex="1" parent="Vjc0g-X-Gko_kS8MleXu-122">
          <mxGeometry x="93.57" y="156" width="100" height="40" as="geometry" />
        </mxCell>
        <mxCell id="Vjc0g-X-Gko_kS8MleXu-117" value="6379" style="rounded=0;whiteSpace=wrap;html=1;" vertex="1" parent="1">
          <mxGeometry x="-720" y="1050" width="90" height="30" as="geometry" />
        </mxCell>
        <mxCell id="Vjc0g-X-Gko_kS8MleXu-119" style="edgeStyle=orthogonalEdgeStyle;rounded=0;orthogonalLoop=1;jettySize=auto;html=1;exitX=0.5;exitY=1;exitDx=0;exitDy=0;entryX=0.462;entryY=0.014;entryDx=0;entryDy=0;entryPerimeter=0;" edge="1" parent="1" source="Vjc0g-X-Gko_kS8MleXu-117" target="Vjc0g-X-Gko_kS8MleXu-114">
          <mxGeometry relative="1" as="geometry" />
        </mxCell>
        <mxCell id="Vjc0g-X-Gko_kS8MleXu-120" value="" style="group" vertex="1" connectable="0" parent="1">
          <mxGeometry x="-740" y="650" width="330" height="260" as="geometry" />
        </mxCell>
        <mxCell id="Vjc0g-X-Gko_kS8MleXu-147" value="" style="group" vertex="1" connectable="0" parent="Vjc0g-X-Gko_kS8MleXu-120">
          <mxGeometry width="330" height="260" as="geometry" />
        </mxCell>
        <mxCell id="Vjc0g-X-Gko_kS8MleXu-104" value="" style="rounded=0;whiteSpace=wrap;html=1;" vertex="1" parent="Vjc0g-X-Gko_kS8MleXu-147">
          <mxGeometry width="330" height="260" as="geometry" />
        </mxCell>
        <mxCell id="Vjc0g-X-Gko_kS8MleXu-105" value="&lt;font style=&quot;font-size: 18px;&quot;&gt;167.172.177.199&lt;/font&gt;" style="text;strokeColor=none;fillColor=none;html=1;fontSize=24;fontStyle=1;verticalAlign=middle;align=center;" vertex="1" parent="Vjc0g-X-Gko_kS8MleXu-147">
          <mxGeometry x="110" y="10" width="100" height="40" as="geometry" />
        </mxCell>
        <mxCell id="Vjc0g-X-Gko_kS8MleXu-155" style="edgeStyle=orthogonalEdgeStyle;rounded=0;orthogonalLoop=1;jettySize=auto;html=1;exitX=1;exitY=0.5;exitDx=0;exitDy=0;entryX=0;entryY=0.5;entryDx=0;entryDy=0;" edge="1" parent="Vjc0g-X-Gko_kS8MleXu-147" source="Vjc0g-X-Gko_kS8MleXu-106" target="Vjc0g-X-Gko_kS8MleXu-153">
          <mxGeometry relative="1" as="geometry" />
        </mxCell>
        <mxCell id="Vjc0g-X-Gko_kS8MleXu-106" value="Kannel-service" style="rounded=0;whiteSpace=wrap;html=1;" vertex="1" parent="Vjc0g-X-Gko_kS8MleXu-147">
          <mxGeometry x="50" y="90" width="120" height="60" as="geometry" />
        </mxCell>
        <mxCell id="Vjc0g-X-Gko_kS8MleXu-152" style="edgeStyle=orthogonalEdgeStyle;rounded=0;orthogonalLoop=1;jettySize=auto;html=1;exitX=1;exitY=0.5;exitDx=0;exitDy=0;entryX=0;entryY=0.5;entryDx=0;entryDy=0;" edge="1" parent="Vjc0g-X-Gko_kS8MleXu-147" source="Vjc0g-X-Gko_kS8MleXu-146" target="Vjc0g-X-Gko_kS8MleXu-148">
          <mxGeometry relative="1" as="geometry" />
        </mxCell>
        <mxCell id="Vjc0g-X-Gko_kS8MleXu-146" value="sms-service" style="rounded=0;whiteSpace=wrap;html=1;" vertex="1" parent="Vjc0g-X-Gko_kS8MleXu-147">
          <mxGeometry x="50" y="170" width="120" height="60" as="geometry" />
        </mxCell>
        <mxCell id="Vjc0g-X-Gko_kS8MleXu-148" value="3000" style="rounded=0;whiteSpace=wrap;html=1;" vertex="1" parent="Vjc0g-X-Gko_kS8MleXu-147">
          <mxGeometry x="210" y="185" width="90" height="30" as="geometry" />
        </mxCell>
        <mxCell id="Vjc0g-X-Gko_kS8MleXu-153" value="4200" style="rounded=0;whiteSpace=wrap;html=1;" vertex="1" parent="Vjc0g-X-Gko_kS8MleXu-147">
          <mxGeometry x="210" y="105" width="90" height="30" as="geometry" />
        </mxCell>
        <mxCell id="Vjc0g-X-Gko_kS8MleXu-123" value="" style="group" vertex="1" connectable="0" parent="1">
          <mxGeometry x="-300" y="1290" width="330" height="260" as="geometry" />
        </mxCell>
        <mxCell id="Vjc0g-X-Gko_kS8MleXu-132" value="" style="group" vertex="1" connectable="0" parent="Vjc0g-X-Gko_kS8MleXu-123">
          <mxGeometry width="330" height="260" as="geometry" />
        </mxCell>
        <mxCell id="Vjc0g-X-Gko_kS8MleXu-124" value="" style="rounded=0;whiteSpace=wrap;html=1;" vertex="1" parent="Vjc0g-X-Gko_kS8MleXu-132">
          <mxGeometry width="330" height="260" as="geometry" />
        </mxCell>
        <mxCell id="Vjc0g-X-Gko_kS8MleXu-126" value="sms-messaging-service" style="rounded=0;whiteSpace=wrap;html=1;" vertex="1" parent="Vjc0g-X-Gko_kS8MleXu-132">
          <mxGeometry x="105" y="90" width="120" height="60" as="geometry" />
        </mxCell>
        <mxCell id="Vjc0g-X-Gko_kS8MleXu-127" value="3000" style="rounded=0;whiteSpace=wrap;html=1;" vertex="1" parent="Vjc0g-X-Gko_kS8MleXu-132">
          <mxGeometry x="120" y="40" width="90" height="30" as="geometry" />
        </mxCell>
        <mxCell id="Vjc0g-X-Gko_kS8MleXu-128" value="5000" style="rounded=0;whiteSpace=wrap;html=1;" vertex="1" parent="1">
          <mxGeometry x="-180" y="1050" width="90" height="30" as="geometry" />
        </mxCell>
        <mxCell id="Vjc0g-X-Gko_kS8MleXu-129" style="edgeStyle=orthogonalEdgeStyle;rounded=0;orthogonalLoop=1;jettySize=auto;html=1;" edge="1" parent="1" source="Vjc0g-X-Gko_kS8MleXu-127" target="Vjc0g-X-Gko_kS8MleXu-128">
          <mxGeometry relative="1" as="geometry" />
        </mxCell>
        <mxCell id="Vjc0g-X-Gko_kS8MleXu-130" style="edgeStyle=orthogonalEdgeStyle;rounded=0;orthogonalLoop=1;jettySize=auto;html=1;exitX=1;exitY=1;exitDx=0;exitDy=0;entryX=0;entryY=0.5;entryDx=0;entryDy=0;" edge="1" parent="1" source="Vjc0g-X-Gko_kS8MleXu-146" target="Vjc0g-X-Gko_kS8MleXu-128">
          <mxGeometry relative="1" as="geometry" />
        </mxCell>
        <mxCell id="Vjc0g-X-Gko_kS8MleXu-133" value="" style="rounded=0;whiteSpace=wrap;html=1;" vertex="1" parent="1">
          <mxGeometry x="-290" y="320" width="280" height="180" as="geometry" />
        </mxCell>
        <mxCell id="Vjc0g-X-Gko_kS8MleXu-134" value="" style="image;aspect=fixed;html=1;points=[];align=center;fontSize=12;image=img/lib/azure2/other/Managed_Instance_Apache_Cassandra.svg;" vertex="1" parent="1">
          <mxGeometry x="225" y="1350" width="190" height="190" as="geometry" />
        </mxCell>
        <mxCell id="Vjc0g-X-Gko_kS8MleXu-143" style="edgeStyle=orthogonalEdgeStyle;rounded=0;orthogonalLoop=1;jettySize=auto;html=1;exitX=1;exitY=0.5;exitDx=0;exitDy=0;" edge="1" parent="1" source="Vjc0g-X-Gko_kS8MleXu-141" target="Vjc0g-X-Gko_kS8MleXu-134">
          <mxGeometry relative="1" as="geometry" />
        </mxCell>
        <mxCell id="Vjc0g-X-Gko_kS8MleXu-141" value="9045" style="rounded=0;whiteSpace=wrap;html=1;" vertex="1" parent="1">
          <mxGeometry x="155" y="1180" width="80" height="40" as="geometry" />
        </mxCell>
        <mxCell id="Vjc0g-X-Gko_kS8MleXu-142" style="edgeStyle=orthogonalEdgeStyle;rounded=0;orthogonalLoop=1;jettySize=auto;html=1;exitX=1;exitY=0;exitDx=0;exitDy=0;entryX=0;entryY=0.5;entryDx=0;entryDy=0;" edge="1" parent="1" source="Vjc0g-X-Gko_kS8MleXu-124" target="Vjc0g-X-Gko_kS8MleXu-141">
          <mxGeometry relative="1" as="geometry" />
        </mxCell>
        <mxCell id="Vjc0g-X-Gko_kS8MleXu-144" style="edgeStyle=orthogonalEdgeStyle;rounded=0;orthogonalLoop=1;jettySize=auto;html=1;exitX=0.75;exitY=0;exitDx=0;exitDy=0;entryX=0;entryY=0.5;entryDx=0;entryDy=0;" edge="1" parent="1" source="Vjc0g-X-Gko_kS8MleXu-124" target="Vjc0g-X-Gko_kS8MleXu-81">
          <mxGeometry relative="1" as="geometry" />
        </mxCell>
        <mxCell id="Vjc0g-X-Gko_kS8MleXu-151" style="edgeStyle=orthogonalEdgeStyle;rounded=0;orthogonalLoop=1;jettySize=auto;html=1;entryX=0.25;entryY=0;entryDx=0;entryDy=0;" edge="1" parent="1" source="Vjc0g-X-Gko_kS8MleXu-145" target="Vjc0g-X-Gko_kS8MleXu-124">
          <mxGeometry relative="1" as="geometry" />
        </mxCell>
        <mxCell id="Vjc0g-X-Gko_kS8MleXu-145" value="4800" style="rounded=0;whiteSpace=wrap;html=1;" vertex="1" parent="1">
          <mxGeometry x="-440" y="1130" width="90" height="30" as="geometry" />
        </mxCell>
        <mxCell id="Vjc0g-X-Gko_kS8MleXu-149" style="edgeStyle=orthogonalEdgeStyle;rounded=0;orthogonalLoop=1;jettySize=auto;html=1;entryX=0;entryY=0.5;entryDx=0;entryDy=0;" edge="1" parent="1" source="Vjc0g-X-Gko_kS8MleXu-148" target="Vjc0g-X-Gko_kS8MleXu-145">
          <mxGeometry relative="1" as="geometry" />
        </mxCell>
        <mxCell id="Vjc0g-X-Gko_kS8MleXu-154" value="4100" style="rounded=0;whiteSpace=wrap;html=1;" vertex="1" parent="1">
          <mxGeometry x="-460" y="1430" width="110" height="30" as="geometry" />
        </mxCell>
        <mxCell id="Vjc0g-X-Gko_kS8MleXu-156" style="edgeStyle=orthogonalEdgeStyle;rounded=0;orthogonalLoop=1;jettySize=auto;html=1;exitX=1;exitY=0.5;exitDx=0;exitDy=0;entryX=0.5;entryY=0;entryDx=0;entryDy=0;" edge="1" parent="1" source="Vjc0g-X-Gko_kS8MleXu-153" target="Vjc0g-X-Gko_kS8MleXu-154">
          <mxGeometry relative="1" as="geometry" />
        </mxCell>
        <mxCell id="Vjc0g-X-Gko_kS8MleXu-157" style="edgeStyle=orthogonalEdgeStyle;rounded=0;orthogonalLoop=1;jettySize=auto;html=1;exitX=0;exitY=0.5;exitDx=0;exitDy=0;entryX=1;entryY=0.5;entryDx=0;entryDy=0;" edge="1" parent="1" source="Vjc0g-X-Gko_kS8MleXu-124" target="Vjc0g-X-Gko_kS8MleXu-154">
          <mxGeometry relative="1" as="geometry" />
        </mxCell>
      </root>
    </mxGraphModel>
  </diagram>
</mxfile>
